<svg width="512" height="512" version="1.1" viewBox="0 0 135.47 135.47" xmlns="http://www.w3.org/2000/svg">
 <path transform="matrix(1.1796 0 0 1.1796 -8.9956 -15.334)" d="m79.587 55.882c0.06551 0.06519 0.1307 0.13058 0.19556 0.19616 7.2636 7.3442 12.042 18.815 10.752 29.063-0.37845 3.0077-2.326 6.3106-5.1403 7.437-2.8961 1.1591-6.2952 0.37692-9.1631-1.9023-3.0743-2.4433-7.1804-2.1743-9.8788-0.28456-2.5807 1.8073-3.9141 5.989-2.9671 8.9939 0.94582 3.001 4.4547 5.2041 7.5713 5.6374 15.273 2.1236 32.101-3.9622 43.207-16.508 1.331-1.5035 4.2263-2.6109 6.5928-0.70613 1.9515 1.5708 2.0598 3.9804 1.1901 5.91-9.3172 20.672-36.552 37.96-63.188 33.291-12.897-2.2609-24.483-8.2655-33.322-16.98-8.7143-8.8384-14.719-20.425-16.98-33.322-4.6695-26.636 12.619-53.871 33.291-63.188 1.9296-0.86968 4.3392-0.7614 5.91 1.1901 1.9048 2.3665 0.79735 5.2618-0.70613 6.5928-12.546 11.106-18.632 27.934-16.508 43.207 0.43334 3.1165 2.6364 6.6255 5.6374 7.5713 3.0049 0.94704 7.1866-0.38637 8.9939-2.9671 1.8897-2.6984 2.1587-6.8045-0.28456-9.8788-2.2792-2.8679-3.0614-6.267-1.9023-9.1631 1.1264-2.8144 4.4293-4.7619 7.437-5.1403 10.249-1.2896 21.719 3.4887 29.063 10.752 0.06558 0.06486 0.13097 0.13005 0.19616 0.19556" fill="#fff" style="paint-order:stroke markers fill"/>
</svg>
